
<?xml version='1.0' encoding='UTF-8' standalone='no' ?><svg width='100' height='25'>
<polyline points="1,2 2,2.2 3,4.2 4,4.2 5,5.2 6,5 7,6.5 8,6.3 9,8.7 10,7.8 11,8.7 12,7.8 13,8.2 14,6.9 15,6.9 16,9.1 17,8.7 18,8.9 19,9.7 20,8.7 21,7.8 22,10 23,8.7 24,10 25,8.9 26,9.5 27,8.9 28,7.8 29,10 30,9.1 31,9.5 32,9.3 33,10.8 34,12.8 35,14.5 36,15.5 37,18.3 38,16.2 39,15.5 40,15.1 41,16 42,20.1 43,22 44,18.6 45,19 46,17.5 47,17.3 48,18.1 49,17.5 50,17.9 51,17.9 52,17.5 53,17.3 54,16.4 55,16.8 56,16.6 57,16.4 58,15.8 59,14.9 60,14 61,11.9 62,13 63,13.2 64,12.1 65,11.7 66,12.5 67,14.5 68,15.8 69,16.4 70,14.5 71,14.9 72,14.7 73,12.5 74,14 75,12.1 76,13.4 77,13.6 78,14.3 79,15.1 80,14.7 81,14.9 82,16 83,16 84,15.5 85,16.6 86,16.6 87,16.2 88,17.7 89,15.5 90,17.1 91,16.8 92,16.2 93,14.3 94,13.4 95,13.2 96,13 97,11 " style='fill:none;stroke:black;stroke-width:0.6' transform='scale(0.8)' ></polyline><circle cx='8' cy='6.3' r='3' fill='red' fill-opacity='0.2' transform='scale(0.8)' /><circle cx='10' cy='7.8' r='3' fill='red' fill-opacity='0.2' transform='scale(0.8)' /><circle cx='11' cy='8.7' r='3' fill='red' fill-opacity='0.2' transform='scale(0.8)' /><circle cx='15' cy='6.9' r='3' fill='green' fill-opacity='0.2' transform='scale(0.8)' /><circle cx='18' cy='8.9' r='3' fill='red' fill-opacity='0.2' transform='scale(0.8)' /><circle cx='19' cy='9.7' r='3' fill='red' fill-opacity='0.2' transform='scale(0.8)' /><circle cx='24' cy='10' r='3' fill='red' fill-opacity='0.2' transform='scale(0.8)' /><circle cx='29' cy='10' r='3' fill='red' fill-opacity='0.2' transform='scale(0.8)' /><circle cx='42' cy='20.1' r='3' fill='red' fill-opacity='0.2' transform='scale(0.8)' /><circle cx='46' cy='17.5' r='3' fill='green' fill-opacity='0.2' transform='scale(0.8)' /><circle cx='54' cy='16.4' r='3' fill='green' fill-opacity='0.2' transform='scale(0.8)' /><circle cx='58' cy='15.8' r='3' fill='green' fill-opacity='0.2' transform='scale(0.8)' /><circle cx='59' cy='14.9' r='3' fill='green' fill-opacity='0.2' transform='scale(0.8)' /><circle cx='64' cy='12.1' r='3' fill='green' fill-opacity='0.2' transform='scale(0.8)' /><circle cx='78' cy='14.3' r='3' fill='red' fill-opacity='0.2' transform='scale(0.8)' /><circle cx='83' cy='16' r='3' fill='red' fill-opacity='0.2' transform='scale(0.8)' /><circle cx='88' cy='17.7' r='3' fill='red' fill-opacity='0.2' transform='scale(0.8)' /><circle cx='89' cy='15.5' r='3' fill='green' fill-opacity='0.2' transform='scale(0.8)' /><circle cx='94' cy='13.4' r='3' fill='green' fill-opacity='0.2' transform='scale(0.8)' /><circle cx='97' cy='11' r='3' fill='green' fill-opacity='0.2' transform='scale(0.8)' >  <animate attributeType='CSS' attributeName='opacity' from='1' to='0' dur='1s' repeatCount='indefinite' /> </circle> Sorry, your browser does not support inline SVG.</svg>
