
<?xml version='1.0' encoding='UTF-8' standalone='no' ?><svg width='100' height='25'>
<polyline points="1,17.2 2,17.7 3,17.7 4,17.2 5,17.7 6,18.5 7,18.1 8,17.2 9,16.8 10,19.8 11,18.5 12,19.4 13,19.8 14,19.4 15,19 16,18.5 17,18.5 18,17.7 19,19 20,18.5 21,18.5 22,18.5 23,18.1 24,19.4 25,19.4 26,19.4 27,19 28,19.4 29,19.8 30,19.4 31,22 32,22 33,21.6 34,18.1 35,14.6 36,15.9 37,13.7 38,14.6 39,14.2 40,12.9 41,13.7 42,13.7 43,14.6 44,15.5 45,14.2 46,14.6 47,14.2 48,14.6 49,14.2 50,14.2 51,9.8 52,7.7 53,8.5 54,9.8 55,11.6 56,9 57,11.1 58,14.2 59,12.9 60,12 61,11.6 62,10.3 63,9.8 64,10.7 65,10.3 66,9.8 67,10.3 68,8.5 69,9.4 70,9.4 71,9.8 72,10.7 73,10.7 74,11.6 75,10.7 76,11.6 77,11.6 78,11.1 79,11.6 80,12 81,10.7 82,13.3 83,13.3 84,13.7 85,13.7 86,13.3 87,12.4 88,12.9 89,11.6 90,12.4 91,11.6 92,11.6 93,10.7 94,12 95,10.7 96,10.3 97,9.8 98,10.7 99,2.9 100,4.2 101,2 " style='fill:none;stroke:black;stroke-width:0.6' transform='scale(0.8)' ></polyline><circle cx='24' cy='19.4' r='3' fill='red' fill-opacity='0.2' transform='scale(0.8)' /><circle cx='25' cy='19.4' r='3' fill='red' fill-opacity='0.2' transform='scale(0.8)' /><circle cx='32' cy='22' r='3' fill='red' fill-opacity='0.2' transform='scale(0.8)' /><circle cx='33' cy='21.6' r='3' fill='red' fill-opacity='0.2' transform='scale(0.8)' /><circle cx='34' cy='18.1' r='3' fill='green' fill-opacity='0.2' transform='scale(0.8)' /><circle cx='35' cy='14.6' r='3' fill='green' fill-opacity='0.2' transform='scale(0.8)' /><circle cx='37' cy='13.7' r='3' fill='green' fill-opacity='0.2' transform='scale(0.8)' /><circle cx='43' cy='14.6' r='3' fill='red' fill-opacity='0.2' transform='scale(0.8)' /><circle cx='51' cy='9.8' r='3' fill='green' fill-opacity='0.2' transform='scale(0.8)' /><circle cx='52' cy='7.7' r='3' fill='green' fill-opacity='0.2' transform='scale(0.8)' /><circle cx='55' cy='11.6' r='3' fill='red' fill-opacity='0.2' transform='scale(0.8)' /><circle cx='58' cy='14.2' r='3' fill='red' fill-opacity='0.2' transform='scale(0.8)' /><circle cx='59' cy='12.9' r='3' fill='red' fill-opacity='0.2' transform='scale(0.8)' /><circle cx='63' cy='9.8' r='3' fill='green' fill-opacity='0.2' transform='scale(0.8)' /><circle cx='68' cy='8.5' r='3' fill='green' fill-opacity='0.2' transform='scale(0.8)' /><circle cx='74' cy='11.6' r='3' fill='red' fill-opacity='0.2' transform='scale(0.8)' /><circle cx='84' cy='13.7' r='3' fill='red' fill-opacity='0.2' transform='scale(0.8)' /><circle cx='99' cy='2.9' r='3' fill='green' fill-opacity='0.2' transform='scale(0.8)' /><circle cx='101' cy='2' r='3' fill='green' fill-opacity='0.2' transform='scale(0.8)' >  <animate attributeType='CSS' attributeName='opacity' from='1' to='0' dur='1s' repeatCount='indefinite' /> </circle> Sorry, your browser does not support inline SVG.</svg>
