
<?xml version='1.0' encoding='UTF-8' standalone='no' ?><svg width='100' height='25'>
<polyline points="1,17.9 2,18.6 3,18.9 4,20.1 5,18.9 6,20.4 7,16.8 8,16.4 9,16.4 10,17.1 11,15.7 12,16.8 13,17.3 14,15.3 15,15.3 16,15.3 17,15.3 18,15 19,13.9 20,14.2 21,14.2 22,16.4 23,16.1 24,16.8 25,17.6 26,16.1 27,16.1 28,16.8 29,19 30,21.7 31,22 32,19.3 33,19.2 34,19 35,18.1 36,17.4 37,18.9 38,17.3 39,17.1 40,17.3 41,17.3 42,17.3 43,16.1 44,14.2 45,15.3 46,16.4 47,13.9 48,15 49,13.5 50,12.7 51,13.5 52,14.6 53,13.5 54,14.2 55,14.2 56,12.7 57,12 58,11.6 59,11.6 60,10.1 61,9.4 62,9 63,9.8 64,9.8 65,10.9 66,13.1 67,12.4 68,12.7 69,12 70,11.3 71,10.1 72,11.3 73,11.6 74,12.7 75,13.9 76,14.2 77,15 78,13.5 79,12.7 80,13.1 81,14.2 82,13.9 83,13.5 84,12.7 85,12 86,12.7 87,12 88,12 89,12 90,11.3 91,10.1 92,10.1 93,10.9 94,8.7 95,9.4 96,7.2 97,6.8 98,6.4 99,5 100,5.7 101,2 " style='fill:none;stroke:black;stroke-width:0.6' transform='scale(0.8)' ></polyline><circle cx='14' cy='15.3' r='3' fill='green' fill-opacity='0.2' transform='scale(0.8)' /><circle cx='19' cy='13.9' r='3' fill='green' fill-opacity='0.2' transform='scale(0.8)' /><circle cx='23' cy='16.1' r='3' fill='red' fill-opacity='0.2' transform='scale(0.8)' /><circle cx='24' cy='16.8' r='3' fill='red' fill-opacity='0.2' transform='scale(0.8)' /><circle cx='25' cy='17.6' r='3' fill='red' fill-opacity='0.2' transform='scale(0.8)' /><circle cx='44' cy='14.2' r='3' fill='green' fill-opacity='0.2' transform='scale(0.8)' /><circle cx='47' cy='13.9' r='3' fill='green' fill-opacity='0.2' transform='scale(0.8)' /><circle cx='50' cy='12.7' r='3' fill='green' fill-opacity='0.2' transform='scale(0.8)' /><circle cx='56' cy='12.7' r='3' fill='green' fill-opacity='0.2' transform='scale(0.8)' /><circle cx='57' cy='12' r='3' fill='green' fill-opacity='0.2' transform='scale(0.8)' /><circle cx='62' cy='9' r='3' fill='green' fill-opacity='0.2' transform='scale(0.8)' /><circle cx='67' cy='12.4' r='3' fill='red' fill-opacity='0.2' transform='scale(0.8)' /><circle cx='68' cy='12.7' r='3' fill='red' fill-opacity='0.2' transform='scale(0.8)' /><circle cx='71' cy='10.1' r='3' fill='green' fill-opacity='0.2' transform='scale(0.8)' /><circle cx='74' cy='12.7' r='3' fill='red' fill-opacity='0.2' transform='scale(0.8)' /><circle cx='75' cy='13.9' r='3' fill='red' fill-opacity='0.2' transform='scale(0.8)' /><circle cx='76' cy='14.2' r='3' fill='red' fill-opacity='0.2' transform='scale(0.8)' /><circle cx='77' cy='15' r='3' fill='red' fill-opacity='0.2' transform='scale(0.8)' /><circle cx='94' cy='8.7' r='3' fill='green' fill-opacity='0.2' transform='scale(0.8)' /><circle cx='96' cy='7.2' r='3' fill='green' fill-opacity='0.2' transform='scale(0.8)' /><circle cx='101' cy='2' r='3' fill='green' fill-opacity='0.2' transform='scale(0.8)' >  <animate attributeType='CSS' attributeName='opacity' from='1' to='0' dur='1s' repeatCount='indefinite' /> </circle> Sorry, your browser does not support inline SVG.</svg>
