
<?xml version='1.0' encoding='UTF-8' standalone='no' ?><svg width='100' height='25'>
<polyline points="1,11.1 2,11.6 3,13.9 4,13.9 5,13.7 6,14.2 7,13.9 8,14.5 9,14.2 10,14.5 11,14.5 12,12.9 13,13.4 14,13.2 15,12.9 16,13.4 17,13.4 18,13.4 19,13.9 20,13.9 21,14.5 22,13.9 23,14.2 24,14.2 25,14.7 26,14.5 27,15.5 28,15.5 29,15.5 30,15.8 31,16 32,16.3 33,16.8 34,16.5 35,16.5 36,16.5 37,16.8 38,17.1 39,17.1 40,18.1 41,17.8 42,17.1 43,17.8 44,18.4 45,22 46,21.5 47,19.1 48,18.9 49,19.1 50,18.9 51,18.6 52,18.6 53,19.1 54,18.4 55,15.2 56,15.2 57,15.5 58,15.8 59,14.7 60,14.1 61,14.1 62,12.8 63,12.5 64,4.7 65,6 66,6.3 67,10.1 68,9.8 69,11.7 70,11.7 71,11.2 72,12 73,12.2 74,11.2 75,11.7 76,11.4 77,8.5 78,9.8 79,11.7 80,12.2 81,12.2 82,12.2 83,11.4 84,11.7 85,12 86,12.5 87,12.5 88,12.2 89,13.3 90,14.7 91,14.7 92,16.8 93,14.4 94,14.7 95,14.9 96,15.5 97,15.5 98,14.9 99,9.8 100,9.6 101,2 " style='fill:none;stroke:black;stroke-width:0.6' transform='scale(0.8)' ></polyline><circle cx='12' cy='12.9' r='3' fill='green' fill-opacity='0.2' transform='scale(0.8)' /><circle cx='28' cy='15.5' r='3' fill='red' fill-opacity='0.2' transform='scale(0.8)' /><circle cx='33' cy='16.8' r='3' fill='red' fill-opacity='0.2' transform='scale(0.8)' /><circle cx='47' cy='19.1' r='3' fill='green' fill-opacity='0.2' transform='scale(0.8)' /><circle cx='55' cy='15.2' r='3' fill='green' fill-opacity='0.2' transform='scale(0.8)' /><circle cx='56' cy='15.2' r='3' fill='green' fill-opacity='0.2' transform='scale(0.8)' /><circle cx='62' cy='12.8' r='3' fill='green' fill-opacity='0.2' transform='scale(0.8)' /><circle cx='64' cy='4.7' r='3' fill='green' fill-opacity='0.2' transform='scale(0.8)' /><circle cx='67' cy='10.1' r='3' fill='red' fill-opacity='0.2' transform='scale(0.8)' /><circle cx='68' cy='9.8' r='3' fill='red' fill-opacity='0.2' transform='scale(0.8)' /><circle cx='69' cy='11.7' r='3' fill='red' fill-opacity='0.2' transform='scale(0.8)' /><circle cx='70' cy='11.7' r='3' fill='red' fill-opacity='0.2' transform='scale(0.8)' /><circle cx='72' cy='12' r='3' fill='red' fill-opacity='0.2' transform='scale(0.8)' /><circle cx='77' cy='8.5' r='3' fill='green' fill-opacity='0.2' transform='scale(0.8)' /><circle cx='78' cy='9.8' r='3' fill='green' fill-opacity='0.2' transform='scale(0.8)' /><circle cx='79' cy='11.7' r='3' fill='red' fill-opacity='0.2' transform='scale(0.8)' /><circle cx='80' cy='12.2' r='3' fill='red' fill-opacity='0.2' transform='scale(0.8)' /><circle cx='81' cy='12.2' r='3' fill='red' fill-opacity='0.2' transform='scale(0.8)' /><circle cx='91' cy='14.7' r='3' fill='red' fill-opacity='0.2' transform='scale(0.8)' /><circle cx='99' cy='9.8' r='3' fill='green' fill-opacity='0.2' transform='scale(0.8)' /><circle cx='100' cy='9.6' r='3' fill='green' fill-opacity='0.2' transform='scale(0.8)' /><circle cx='101' cy='2' r='3' fill='green' fill-opacity='0.2' transform='scale(0.8)' >  <animate attributeType='CSS' attributeName='opacity' from='1' to='0' dur='1s' repeatCount='indefinite' /> </circle> Sorry, your browser does not support inline SVG.</svg>
