
<?xml version='1.0' encoding='UTF-8' standalone='no' ?><svg width='100' height='25'>
<polyline points="1,2 2,3.2 3,4.8 4,3.6 5,5.6 6,3.6 7,7.6 8,7.6 9,4.4 10,3.2 11,4.8 12,4.8 13,5.2 14,6 15,7.2 16,6 17,7.6 18,14 19,16.6 20,17.2 21,15.3 22,14.2 23,14.5 24,15.3 25,12.6 26,12.9 27,12.7 28,10.3 29,7.9 30,10.3 31,9.1 32,8.7 33,9.9 34,10.7 35,11.5 36,10.7 37,11.5 38,11.9 39,12.1 40,12.6 41,13.2 42,14.2 43,15.3 44,17.9 45,17.6 46,16 47,16.8 48,14.9 49,13.4 50,12.3 51,12.4 52,11.1 53,11.9 54,10.7 55,11.1 56,10.7 57,12.6 58,13.6 59,13.4 60,14.7 61,14.4 62,14.5 63,14.2 64,13.7 65,14.5 66,14.7 67,14.5 68,15.3 69,15.7 70,15.7 71,16.2 72,16.2 73,16.5 74,17 75,16.6 76,16.5 77,17 78,17.3 79,17.3 80,17.5 81,17.6 82,17.5 83,17.6 84,17.8 85,18.6 86,20.1 87,20.1 88,20.4 89,21.4 90,22 91,22 92,21 93,20.4 94,20.5 95,20.7 96,19.7 97,17.5 98,16.8 99,15.7 100,15.3 101,14 " style='fill:none;stroke:black;stroke-width:0.6' transform='scale(0.8)' ></polyline><circle cx='8' cy='7.6' r='3' fill='red' fill-opacity='0.2' transform='scale(0.8)' /><circle cx='14' cy='6' r='3' fill='red' fill-opacity='0.2' transform='scale(0.8)' /><circle cx='15' cy='7.2' r='3' fill='red' fill-opacity='0.2' transform='scale(0.8)' /><circle cx='17' cy='7.6' r='3' fill='red' fill-opacity='0.2' transform='scale(0.8)' /><circle cx='20' cy='17.2' r='3' fill='red' fill-opacity='0.2' transform='scale(0.8)' /><circle cx='21' cy='15.3' r='3' fill='red' fill-opacity='0.2' transform='scale(0.8)' /><circle cx='25' cy='12.6' r='3' fill='green' fill-opacity='0.2' transform='scale(0.8)' /><circle cx='28' cy='10.3' r='3' fill='green' fill-opacity='0.2' transform='scale(0.8)' /><circle cx='34' cy='10.7' r='3' fill='red' fill-opacity='0.2' transform='scale(0.8)' /><circle cx='35' cy='11.5' r='3' fill='red' fill-opacity='0.2' transform='scale(0.8)' /><circle cx='42' cy='14.2' r='3' fill='red' fill-opacity='0.2' transform='scale(0.8)' /><circle cx='45' cy='17.6' r='3' fill='red' fill-opacity='0.2' transform='scale(0.8)' /><circle cx='68' cy='15.3' r='3' fill='red' fill-opacity='0.2' transform='scale(0.8)' /><circle cx='87' cy='20.1' r='3' fill='red' fill-opacity='0.2' transform='scale(0.8)' /><circle cx='88' cy='20.4' r='3' fill='red' fill-opacity='0.2' transform='scale(0.8)' /><circle cx='90' cy='22' r='3' fill='red' fill-opacity='0.2' transform='scale(0.8)' /><circle cx='91' cy='22' r='3' fill='red' fill-opacity='0.2' transform='scale(0.8)' /><circle cx='97' cy='17.5' r='3' fill='green' fill-opacity='0.2' transform='scale(0.8)' /><circle cx='101' cy='14' r='3' fill='green' fill-opacity='0.2' transform='scale(0.8)' >  <animate attributeType='CSS' attributeName='opacity' from='1' to='0' dur='1s' repeatCount='indefinite' /> </circle> Sorry, your browser does not support inline SVG.</svg>
