
<?xml version='1.0' encoding='UTF-8' standalone='no' ?><svg width='100' height='25'>
<polyline points="1,15.5 2,13.4 3,13.9 4,15 5,13.9 6,14.4 7,15 8,14.4 9,16.6 10,17.7 11,19.8 12,18.8 13,18.8 14,17.7 15,17.7 16,17.7 17,13.9 18,15 19,16.6 20,19.8 21,20.9 22,22 23,19.8 24,20.9 25,19.8 26,20.4 27,19.8 28,19.8 29,16.6 30,16.6 31,16.6 32,16.6 33,18.2 34,17.1 35,17.7 36,14.4 37,17.1 38,15.5 39,16.6 40,14.4 41,14.4 42,3.6 43,4.2 44,10.6 45,10.6 46,7.4 47,6.3 48,6.9 49,9.6 50,10.1 51,6.9 52,9 53,7.4 54,7.4 55,6.3 56,6.9 57,9 58,6.9 59,7.4 60,7.9 61,9.6 62,7.9 63,10.1 64,9 65,10.1 66,9.6 67,9.6 68,9 69,10.1 70,10.1 71,13.4 72,11.2 73,11.2 74,13.9 75,11.7 76,10.1 77,11.2 78,10.6 79,9.6 80,4.7 81,7.9 82,10.1 83,9.6 84,9 85,9.6 86,7.4 87,6.9 88,7.4 89,10.1 90,7.4 91,9 92,8.5 93,8.5 94,7.9 95,6.3 96,6.9 97,5.8 98,6.9 99,5.2 100,4.2 101,2 " style='fill:none;stroke:black;stroke-width:0.6' transform='scale(0.8)' ></polyline><circle cx='12' cy='18.8' r='3' fill='red' fill-opacity='0.2' transform='scale(0.8)' /><circle cx='17' cy='13.9' r='3' fill='green' fill-opacity='0.2' transform='scale(0.8)' /><circle cx='25' cy='19.8' r='3' fill='green' fill-opacity='0.2' transform='scale(0.8)' /><circle cx='30' cy='16.6' r='3' fill='green' fill-opacity='0.2' transform='scale(0.8)' /><circle cx='36' cy='14.4' r='3' fill='green' fill-opacity='0.2' transform='scale(0.8)' /><circle cx='38' cy='15.5' r='3' fill='green' fill-opacity='0.2' transform='scale(0.8)' /><circle cx='40' cy='14.4' r='3' fill='green' fill-opacity='0.2' transform='scale(0.8)' /><circle cx='42' cy='3.6' r='3' fill='green' fill-opacity='0.2' transform='scale(0.8)' /><circle cx='45' cy='10.6' r='3' fill='red' fill-opacity='0.2' transform='scale(0.8)' /><circle cx='61' cy='9.6' r='3' fill='red' fill-opacity='0.2' transform='scale(0.8)' /><circle cx='76' cy='10.1' r='3' fill='green' fill-opacity='0.2' transform='scale(0.8)' /><circle cx='80' cy='4.7' r='3' fill='green' fill-opacity='0.2' transform='scale(0.8)' /><circle cx='86' cy='7.4' r='3' fill='green' fill-opacity='0.2' transform='scale(0.8)' /><circle cx='89' cy='10.1' r='3' fill='red' fill-opacity='0.2' transform='scale(0.8)' /><circle cx='100' cy='4.2' r='3' fill='green' fill-opacity='0.2' transform='scale(0.8)' /><circle cx='101' cy='2' r='3' fill='green' fill-opacity='0.2' transform='scale(0.8)' >  <animate attributeType='CSS' attributeName='opacity' from='1' to='0' dur='1s' repeatCount='indefinite' /> </circle> Sorry, your browser does not support inline SVG.</svg>
