
<?xml version='1.0' encoding='UTF-8' standalone='no' ?><svg width='100' height='25'>
<polyline points="1,12.3 2,13 3,12 4,13.7 5,12 6,13 7,9.5 8,12.3 9,8.1 10,8.1 11,5.9 12,5.6 13,4.5 14,6.6 15,7.3 16,9.8 17,4.9 18,5.6 19,5.6 20,7.3 21,6.6 22,4.1 23,4.9 24,3.8 25,5.2 26,3.1 27,4.1 28,3.8 29,3.4 30,3.1 31,4.1 32,2 33,3.4 34,6.6 35,7.7 36,7.7 37,6.6 38,6.3 39,7.3 40,7.3 41,8.1 42,8.1 43,8.1 44,10.9 45,15.2 46,13.7 47,13 48,14.4 49,11.2 50,9.8 51,9.5 52,10.2 53,9.1 54,9.1 55,7.7 56,7.3 57,7 58,6.6 59,6.6 60,6.3 61,7.3 62,6.6 63,7.7 64,7.7 65,7.3 66,10.7 67,11.5 68,12.2 69,14.5 70,16.7 71,18.2 72,19.4 73,17.9 74,16.7 75,18.6 76,18.2 77,19 78,20.9 79,22 80,20.1 81,20.9 82,17.5 83,16.7 84,18.6 85,19 86,20.1 87,20.9 88,19.4 89,18.6 90,18.2 91,17.9 92,18.6 93,18.6 94,18.2 95,18.2 96,19 97,19 98,13.7 99,11.8 100,11.1 101,8.1 " style='fill:none;stroke:black;stroke-width:0.6' transform='scale(0.8)' ></polyline><circle cx='7' cy='9.5' r='3' fill='green' fill-opacity='0.2' transform='scale(0.8)' /><circle cx='9' cy='8.1' r='3' fill='green' fill-opacity='0.2' transform='scale(0.8)' /><circle cx='17' cy='4.9' r='3' fill='green' fill-opacity='0.2' transform='scale(0.8)' /><circle cx='22' cy='4.1' r='3' fill='green' fill-opacity='0.2' transform='scale(0.8)' /><circle cx='36' cy='7.7' r='3' fill='red' fill-opacity='0.2' transform='scale(0.8)' /><circle cx='68' cy='12.2' r='3' fill='red' fill-opacity='0.2' transform='scale(0.8)' /><circle cx='87' cy='20.9' r='3' fill='red' fill-opacity='0.2' transform='scale(0.8)' /><circle cx='98' cy='13.7' r='3' fill='green' fill-opacity='0.2' transform='scale(0.8)' /><circle cx='99' cy='11.8' r='3' fill='green' fill-opacity='0.2' transform='scale(0.8)' /><circle cx='101' cy='8.1' r='3' fill='green' fill-opacity='0.2' transform='scale(0.8)' >  <animate attributeType='CSS' attributeName='opacity' from='1' to='0' dur='1s' repeatCount='indefinite' /> </circle> Sorry, your browser does not support inline SVG.</svg>
