
<?xml version='1.0' encoding='UTF-8' standalone='no' ?><svg width='100' height='25'>
<polyline points="1,18.5 2,18.1 3,18.5 4,18.5 5,19.3 6,19.3 7,20 8,20.4 9,21.6 10,21.6 11,22 12,21.2 13,20 14,20.8 15,20 16,21.2 17,20.4 18,20 19,18.9 20,17.3 21,17.7 22,15.7 23,16.9 24,16.9 25,16.5 26,15.7 27,14.2 28,15.3 29,14.2 30,14.2 31,14.9 32,15.7 33,17.3 34,17.7 35,20 36,19.6 37,19.6 38,17.7 39,17.3 40,17.7 41,17.3 42,17.7 43,17.7 44,17.3 45,18.1 46,16.9 47,17.7 48,16.5 49,17.3 50,18.5 51,18.1 52,17.7 53,17.3 54,17.7 55,17.3 56,18.5 57,18.1 58,18.9 59,18.9 60,19.6 61,18.9 62,18.1 63,19.3 64,19.3 65,16.9 66,17.3 67,16.5 68,17.3 69,16.9 70,17.7 71,16.1 72,16.9 73,16.1 74,14.9 75,15.3 76,12.6 77,13.4 78,13.8 79,13.8 80,14.2 81,14.5 82,14.5 83,12.2 84,13.4 85,14.5 86,15.3 87,14.2 88,14.5 89,14.5 90,13.8 91,14.5 92,12.6 93,13.4 94,12.2 95,11.8 96,12.6 97,10.2 98,11.4 99,10.6 100,9.5 101,2 " style='fill:none;stroke:black;stroke-width:0.6' transform='scale(0.8)' ></polyline><circle cx='8' cy='20.4' r='3' fill='red' fill-opacity='0.2' transform='scale(0.8)' /><circle cx='10' cy='21.6' r='3' fill='red' fill-opacity='0.2' transform='scale(0.8)' /><circle cx='11' cy='22' r='3' fill='red' fill-opacity='0.2' transform='scale(0.8)' /><circle cx='14' cy='20.8' r='3' fill='green' fill-opacity='0.2' transform='scale(0.8)' /><circle cx='18' cy='20' r='3' fill='green' fill-opacity='0.2' transform='scale(0.8)' /><circle cx='19' cy='18.9' r='3' fill='green' fill-opacity='0.2' transform='scale(0.8)' /><circle cx='20' cy='17.3' r='3' fill='green' fill-opacity='0.2' transform='scale(0.8)' /><circle cx='22' cy='15.7' r='3' fill='green' fill-opacity='0.2' transform='scale(0.8)' /><circle cx='26' cy='15.7' r='3' fill='green' fill-opacity='0.2' transform='scale(0.8)' /><circle cx='27' cy='14.2' r='3' fill='green' fill-opacity='0.2' transform='scale(0.8)' /><circle cx='29' cy='14.2' r='3' fill='green' fill-opacity='0.2' transform='scale(0.8)' /><circle cx='32' cy='15.7' r='3' fill='red' fill-opacity='0.2' transform='scale(0.8)' /><circle cx='33' cy='17.3' r='3' fill='red' fill-opacity='0.2' transform='scale(0.8)' /><circle cx='36' cy='19.6' r='3' fill='red' fill-opacity='0.2' transform='scale(0.8)' /><circle cx='37' cy='19.6' r='3' fill='red' fill-opacity='0.2' transform='scale(0.8)' /><circle cx='40' cy='17.7' r='3' fill='green' fill-opacity='0.2' transform='scale(0.8)' /><circle cx='45' cy='18.1' r='3' fill='red' fill-opacity='0.2' transform='scale(0.8)' /><circle cx='46' cy='16.9' r='3' fill='green' fill-opacity='0.2' transform='scale(0.8)' /><circle cx='53' cy='17.3' r='3' fill='green' fill-opacity='0.2' transform='scale(0.8)' /><circle cx='59' cy='18.9' r='3' fill='red' fill-opacity='0.2' transform='scale(0.8)' /><circle cx='65' cy='16.9' r='3' fill='green' fill-opacity='0.2' transform='scale(0.8)' /><circle cx='67' cy='16.5' r='3' fill='green' fill-opacity='0.2' transform='scale(0.8)' /><circle cx='70' cy='17.7' r='3' fill='red' fill-opacity='0.2' transform='scale(0.8)' /><circle cx='73' cy='16.1' r='3' fill='green' fill-opacity='0.2' transform='scale(0.8)' /><circle cx='76' cy='12.6' r='3' fill='green' fill-opacity='0.2' transform='scale(0.8)' /><circle cx='77' cy='13.4' r='3' fill='green' fill-opacity='0.2' transform='scale(0.8)' /><circle cx='81' cy='14.5' r='3' fill='red' fill-opacity='0.2' transform='scale(0.8)' /><circle cx='83' cy='12.2' r='3' fill='green' fill-opacity='0.2' transform='scale(0.8)' /><circle cx='97' cy='10.2' r='3' fill='green' fill-opacity='0.2' transform='scale(0.8)' /><circle cx='101' cy='2' r='3' fill='green' fill-opacity='0.2' transform='scale(0.8)' >  <animate attributeType='CSS' attributeName='opacity' from='1' to='0' dur='1s' repeatCount='indefinite' /> </circle> Sorry, your browser does not support inline SVG.</svg>
