
<?xml version='1.0' encoding='UTF-8' standalone='no' ?><svg width='100' height='25'>
<polyline points="1,3.6 2,2 3,2 4,2.9 5,5.8 6,7.2 7,8.3 8,7.1 9,9.7 10,9.3 11,11.6 12,12.4 13,11.3 14,13.3 15,12.7 16,14.9 17,15.1 18,14.4 19,15.3 20,13.7 21,12.8 22,13.7 23,12.8 24,13.3 25,13.3 26,11.8 27,11.8 28,13.4 29,14.1 30,15.6 31,15.7 32,15.5 33,14.7 34,19.1 35,21.6 36,21.1 37,22 38,18 39,20.5 40,20 41,19.6 42,19.5 43,20.3 44,20.3 45,21.2 46,20.3 47,19.4 48,17.7 49,17.4 50,17.3 51,17.2 52,17.2 53,16.9 54,15.7 55,15.9 56,16.4 57,15.9 58,15.2 59,15.1 60,12.4 61,11.1 62,10.9 63,11.2 64,10.6 65,10.9 66,11.2 67,12.8 68,12.8 69,13.2 70,11.6 71,12.2 72,12.1 73,12.6 74,12 75,10.9 76,10.9 77,11.2 78,10.4 79,9.8 80,9.2 81,9.4 82,9.5 83,10.7 84,9.3 85,9.9 86,9.7 87,9.8 88,9.3 89,7.8 90,7.7 91,6.6 92,6.3 93,6.1 94,6 95,4.7 96,3.9 97,4.9 98,4.2 99,3.7 100,2.7 101,3.2 " style='fill:none;stroke:black;stroke-width:0.6' transform='scale(0.8)' ></polyline><circle cx='8' cy='7.1' r='3' fill='red' fill-opacity='0.2' transform='scale(0.8)' /><circle cx='10' cy='9.3' r='3' fill='red' fill-opacity='0.2' transform='scale(0.8)' /><circle cx='19' cy='15.3' r='3' fill='red' fill-opacity='0.2' transform='scale(0.8)' /><circle cx='21' cy='12.8' r='3' fill='green' fill-opacity='0.2' transform='scale(0.8)' /><circle cx='26' cy='11.8' r='3' fill='green' fill-opacity='0.2' transform='scale(0.8)' /><circle cx='29' cy='14.1' r='3' fill='red' fill-opacity='0.2' transform='scale(0.8)' /><circle cx='33' cy='14.7' r='3' fill='green' fill-opacity='0.2' transform='scale(0.8)' /><circle cx='38' cy='18' r='3' fill='green' fill-opacity='0.2' transform='scale(0.8)' /><circle cx='43' cy='20.3' r='3' fill='red' fill-opacity='0.2' transform='scale(0.8)' /><circle cx='44' cy='20.3' r='3' fill='red' fill-opacity='0.2' transform='scale(0.8)' /><circle cx='47' cy='19.4' r='3' fill='green' fill-opacity='0.2' transform='scale(0.8)' /><circle cx='48' cy='17.7' r='3' fill='green' fill-opacity='0.2' transform='scale(0.8)' /><circle cx='54' cy='15.7' r='3' fill='green' fill-opacity='0.2' transform='scale(0.8)' /><circle cx='60' cy='12.4' r='3' fill='green' fill-opacity='0.2' transform='scale(0.8)' /><circle cx='69' cy='13.2' r='3' fill='red' fill-opacity='0.2' transform='scale(0.8)' /><circle cx='75' cy='10.9' r='3' fill='green' fill-opacity='0.2' transform='scale(0.8)' /><circle cx='78' cy='10.4' r='3' fill='green' fill-opacity='0.2' transform='scale(0.8)' /><circle cx='81' cy='9.4' r='3' fill='green' fill-opacity='0.2' transform='scale(0.8)' /><circle cx='91' cy='6.6' r='3' fill='green' fill-opacity='0.2' transform='scale(0.8)' /><circle cx='92' cy='6.3' r='3' fill='green' fill-opacity='0.2' transform='scale(0.8)' /><circle cx='96' cy='3.9' r='3' fill='green' fill-opacity='0.2' transform='scale(0.8)' /><circle cx='100' cy='2.7' r='3' fill='green' fill-opacity='0.2' transform='scale(0.8)' /> Sorry, your browser does not support inline SVG.</svg>
