
<?xml version='1.0' encoding='UTF-8' standalone='no' ?><svg width='100' height='25'>
<polyline points="1,5.6 2,7.1 3,9.4 4,8.5 5,10.3 6,8.2 7,7.1 8,7.5 9,6.8 10,11 11,12 12,10.4 13,12.7 14,11.4 15,12 16,13.9 17,12.2 18,12.8 19,12.3 20,10.5 21,8.9 22,11.8 23,13.3 24,17.3 25,17.2 26,16.1 27,16.1 28,19.2 29,21.6 30,21.1 31,22 32,15.9 33,18.7 34,16.7 35,15.7 36,17.1 37,18.5 38,19.6 39,21.2 40,19.5 41,17.8 42,15.9 43,14.7 44,15.3 45,15.6 46,16.3 47,15.1 48,13.8 49,13.7 50,14.2 51,20 52,18.7 53,19.5 54,16.9 55,16.4 56,13.6 57,14.3 58,13.3 59,13.2 60,14.4 61,12.2 62,11 63,12.3 64,10.1 65,10.4 66,10.7 67,10.9 68,12.1 69,13.6 70,12.7 71,12.6 72,10 73,8.6 74,7.3 75,8 76,8.9 77,9.4 78,8.4 79,8.8 80,10.2 81,13.6 82,14.4 83,13.6 84,11.7 85,10.3 86,7.8 87,9 88,9.2 89,7.8 90,7.5 91,8.9 92,10.1 93,9 94,8.5 95,7.2 96,6.5 97,6.3 98,5.8 99,5.5 100,4.8 101,2 " style='fill:none;stroke:black;stroke-width:0.6' transform='scale(0.8)' ></polyline><circle cx='26' cy='16.1' r='3' fill='red' fill-opacity='0.2' transform='scale(0.8)' /><circle cx='37' cy='18.5' r='3' fill='red' fill-opacity='0.2' transform='scale(0.8)' /><circle cx='39' cy='21.2' r='3' fill='red' fill-opacity='0.2' transform='scale(0.8)' /><circle cx='41' cy='17.8' r='3' fill='green' fill-opacity='0.2' transform='scale(0.8)' /><circle cx='42' cy='15.9' r='3' fill='green' fill-opacity='0.2' transform='scale(0.8)' /><circle cx='43' cy='14.7' r='3' fill='green' fill-opacity='0.2' transform='scale(0.8)' /><circle cx='61' cy='12.2' r='3' fill='green' fill-opacity='0.2' transform='scale(0.8)' /><circle cx='62' cy='11' r='3' fill='green' fill-opacity='0.2' transform='scale(0.8)' /><circle cx='74' cy='7.3' r='3' fill='green' fill-opacity='0.2' transform='scale(0.8)' /><circle cx='87' cy='9' r='3' fill='green' fill-opacity='0.2' transform='scale(0.8)' /><circle cx='101' cy='2' r='3' fill='green' fill-opacity='0.2' transform='scale(0.8)' >  <animate attributeType='CSS' attributeName='opacity' from='1' to='0' dur='1s' repeatCount='indefinite' /> </circle> Sorry, your browser does not support inline SVG.</svg>
