
<?xml version='1.0' encoding='UTF-8' standalone='no' ?><svg width='100' height='25'>
<polyline points="1,15.3 2,16.3 3,16.3 4,17.2 5,17.2 6,19.1 7,18.2 8,19.1 9,19.1 10,18.2 11,18.2 12,19.1 13,19.1 14,19.1 15,19.1 16,19.1 17,16.3 18,16.3 19,16.3 20,15.3 21,15.3 22,16.3 23,17.2 24,17.2 25,17.2 26,17.2 27,18.2 28,17.2 29,17.2 30,18.2 31,20.1 32,19.1 33,20.1 34,22 35,22 36,22 37,20.1 38,19.1 39,17.2 40,18.2 41,18.2 42,18.2 43,18.2 44,18.2 45,19.1 46,17.2 47,18.2 48,18.2 49,19.1 50,19.1 51,19.1 52,19.1 53,19.1 54,19.1 55,18.2 56,19.1 57,20.1 58,19.1 59,20.1 60,19.1 61,19.1 62,19.1 63,20.1 64,19.1 65,19.1 66,19.1 67,19.1 68,18.2 69,16.3 70,14.4 71,14.4 72,15.3 73,11.5 74,10.6 75,11.5 76,10.6 77,11.5 78,10.6 79,9.6 80,10.6 81,10.6 82,10.6 83,10.6 84,8.7 85,9.6 86,11.5 87,10.6 88,9.6 89,11.5 90,11.5 91,10.6 92,12.5 93,10.6 94,8.7 95,8.7 96,7.7 97,5.8 98,6.8 99,7.7 100,6.8 101,2 " style='fill:none;stroke:black;stroke-width:0.6' transform='scale(0.8)' ></polyline><circle cx='8' cy='19.1' r='3' fill='red' fill-opacity='0.2' transform='scale(0.8)' /><circle cx='9' cy='19.1' r='3' fill='red' fill-opacity='0.2' transform='scale(0.8)' /><circle cx='18' cy='16.3' r='3' fill='green' fill-opacity='0.2' transform='scale(0.8)' /><circle cx='23' cy='17.2' r='3' fill='red' fill-opacity='0.2' transform='scale(0.8)' /><circle cx='25' cy='17.2' r='3' fill='red' fill-opacity='0.2' transform='scale(0.8)' /><circle cx='31' cy='20.1' r='3' fill='red' fill-opacity='0.2' transform='scale(0.8)' /><circle cx='33' cy='20.1' r='3' fill='red' fill-opacity='0.2' transform='scale(0.8)' /><circle cx='36' cy='22' r='3' fill='red' fill-opacity='0.2' transform='scale(0.8)' /><circle cx='39' cy='17.2' r='3' fill='green' fill-opacity='0.2' transform='scale(0.8)' /><circle cx='45' cy='19.1' r='3' fill='red' fill-opacity='0.2' transform='scale(0.8)' /><circle cx='46' cy='17.2' r='3' fill='green' fill-opacity='0.2' transform='scale(0.8)' /><circle cx='69' cy='16.3' r='3' fill='green' fill-opacity='0.2' transform='scale(0.8)' /><circle cx='70' cy='14.4' r='3' fill='green' fill-opacity='0.2' transform='scale(0.8)' /><circle cx='76' cy='10.6' r='3' fill='green' fill-opacity='0.2' transform='scale(0.8)' /><circle cx='84' cy='8.7' r='3' fill='green' fill-opacity='0.2' transform='scale(0.8)' /><circle cx='86' cy='11.5' r='3' fill='red' fill-opacity='0.2' transform='scale(0.8)' /><circle cx='89' cy='11.5' r='3' fill='red' fill-opacity='0.2' transform='scale(0.8)' /><circle cx='90' cy='11.5' r='3' fill='red' fill-opacity='0.2' transform='scale(0.8)' /><circle cx='97' cy='5.8' r='3' fill='green' fill-opacity='0.2' transform='scale(0.8)' /><circle cx='98' cy='6.8' r='3' fill='green' fill-opacity='0.2' transform='scale(0.8)' /><circle cx='101' cy='2' r='3' fill='green' fill-opacity='0.2' transform='scale(0.8)' >  <animate attributeType='CSS' attributeName='opacity' from='1' to='0' dur='1s' repeatCount='indefinite' /> </circle> Sorry, your browser does not support inline SVG.</svg>
