
<?xml version='1.0' encoding='UTF-8' standalone='no' ?><svg width='100' height='25'>
<polyline points="1,16.5 2,17.5 3,18.1 4,19.7 5,20 6,20.7 7,22 8,20.7 9,20 10,18.8 11,16.6 12,17.1 13,16.9 14,18.2 15,17.9 16,19 17,18.4 18,16.9 19,15.4 20,15.9 21,15.6 22,16.1 23,16.2 24,16 25,16.3 26,15.9 27,15.9 28,13.3 29,13.6 30,12.2 31,11.1 32,12.1 33,12.3 34,11.5 35,11.1 36,11.4 37,11.1 38,9.9 39,11.8 40,12.6 41,12.3 42,12.4 43,11.2 44,10.1 45,9.8 46,9.7 47,8.4 48,9.3 49,8.9 50,9.5 51,11.1 52,9.3 53,10 54,9.4 55,9.5 56,7.3 57,8.1 58,7.5 59,8.8 60,9.8 61,6.7 62,7.7 63,6.4 64,8 65,7.3 66,4.7 67,4.2 68,5 69,6.2 70,5.5 71,5.9 72,6.5 73,6.6 74,6.3 75,8.2 76,7.5 77,8.5 78,6 79,6.8 80,6.3 81,5.6 82,5.2 83,5 84,7 85,7.5 86,6.3 87,8 88,7.8 89,8.5 90,7.9 91,7.9 92,6.8 93,4.8 94,4.5 95,4.8 96,5 97,3.4 98,3.2 99,2.8 100,2.7 101,2 " style='fill:none;stroke:black;stroke-width:0.6' transform='scale(0.8)' ></polyline><circle cx='19' cy='15.4' r='3' fill='green' fill-opacity='0.2' transform='scale(0.8)' /><circle cx='28' cy='13.3' r='3' fill='green' fill-opacity='0.2' transform='scale(0.8)' /><circle cx='29' cy='13.6' r='3' fill='green' fill-opacity='0.2' transform='scale(0.8)' /><circle cx='30' cy='12.2' r='3' fill='green' fill-opacity='0.2' transform='scale(0.8)' /><circle cx='47' cy='8.4' r='3' fill='green' fill-opacity='0.2' transform='scale(0.8)' /><circle cx='56' cy='7.3' r='3' fill='green' fill-opacity='0.2' transform='scale(0.8)' /><circle cx='60' cy='9.8' r='3' fill='red' fill-opacity='0.2' transform='scale(0.8)' /><circle cx='63' cy='6.4' r='3' fill='green' fill-opacity='0.2' transform='scale(0.8)' /><circle cx='66' cy='4.7' r='3' fill='green' fill-opacity='0.2' transform='scale(0.8)' /><circle cx='78' cy='6' r='3' fill='green' fill-opacity='0.2' transform='scale(0.8)' /><circle cx='84' cy='7' r='3' fill='red' fill-opacity='0.2' transform='scale(0.8)' /><circle cx='85' cy='7.5' r='3' fill='red' fill-opacity='0.2' transform='scale(0.8)' /><circle cx='87' cy='8' r='3' fill='red' fill-opacity='0.2' transform='scale(0.8)' /><circle cx='93' cy='4.8' r='3' fill='green' fill-opacity='0.2' transform='scale(0.8)' /><circle cx='94' cy='4.5' r='3' fill='green' fill-opacity='0.2' transform='scale(0.8)' /> Sorry, your browser does not support inline SVG.</svg>
