
<?xml version='1.0' encoding='UTF-8' standalone='no' ?><svg width='100' height='25'>
<polyline points="1,2 2,3.5 3,4.4 4,13.5 5,16.9 6,17.4 7,18.7 8,19.5 9,20.3 10,20.1 11,19.1 12,19.2 13,20.1 14,21.1 15,20.2 16,19.9 17,19.2 18,19.1 19,19.1 20,19.6 21,20.4 22,20.6 23,20.7 24,20 25,20 26,19 27,19 28,18.9 29,18.9 30,19.1 31,19.2 32,19.1 33,20 34,19.8 35,19.7 36,18.6 37,20.1 38,21.3 39,21.1 40,22 41,20.9 42,19.8 43,19 44,19 45,18.9 46,18.5 47,18.3 48,16.1 49,16.6 50,16.8 51,16.9 52,18.1 53,18.4 54,17.9 55,18.9 56,19.5 57,19.9 58,19.6 59,18.7 60,19.1 61,18.9 62,19.1 63,18.5 64,17.5 65,18 66,17.2 67,17.1 68,17 69,17 70,17 71,17.7 72,16.5 73,16.9 74,17.1 75,17.7 76,17.8 77,17.7 78,17.8 79,17.6 80,16.9 81,15 82,15.3 83,15.8 84,16.2 85,17.3 86,17.1 87,16.9 88,17.2 89,17.4 90,17.4 91,17 92,17.3 93,16.8 94,15.2 95,15 96,15.4 97,13.5 98,12.5 99,13.5 100,13.1 101,11.8 " style='fill:none;stroke:black;stroke-width:0.6' transform='scale(0.8)' ></polyline><circle cx='7' cy='18.7' r='3' fill='red' fill-opacity='0.2' transform='scale(0.8)' /><circle cx='8' cy='19.5' r='3' fill='red' fill-opacity='0.2' transform='scale(0.8)' /><circle cx='9' cy='20.3' r='3' fill='red' fill-opacity='0.2' transform='scale(0.8)' /><circle cx='22' cy='20.6' r='3' fill='red' fill-opacity='0.2' transform='scale(0.8)' /><circle cx='27' cy='19' r='3' fill='green' fill-opacity='0.2' transform='scale(0.8)' /><circle cx='36' cy='18.6' r='3' fill='green' fill-opacity='0.2' transform='scale(0.8)' /><circle cx='38' cy='21.3' r='3' fill='red' fill-opacity='0.2' transform='scale(0.8)' /><circle cx='39' cy='21.1' r='3' fill='red' fill-opacity='0.2' transform='scale(0.8)' /><circle cx='40' cy='22' r='3' fill='red' fill-opacity='0.2' transform='scale(0.8)' /><circle cx='48' cy='16.1' r='3' fill='green' fill-opacity='0.2' transform='scale(0.8)' /><circle cx='52' cy='18.1' r='3' fill='red' fill-opacity='0.2' transform='scale(0.8)' /><circle cx='53' cy='18.4' r='3' fill='red' fill-opacity='0.2' transform='scale(0.8)' /><circle cx='55' cy='18.9' r='3' fill='red' fill-opacity='0.2' transform='scale(0.8)' /><circle cx='64' cy='17.5' r='3' fill='green' fill-opacity='0.2' transform='scale(0.8)' /><circle cx='66' cy='17.2' r='3' fill='green' fill-opacity='0.2' transform='scale(0.8)' /><circle cx='81' cy='15' r='3' fill='green' fill-opacity='0.2' transform='scale(0.8)' /><circle cx='82' cy='15.3' r='3' fill='green' fill-opacity='0.2' transform='scale(0.8)' /><circle cx='85' cy='17.3' r='3' fill='red' fill-opacity='0.2' transform='scale(0.8)' /><circle cx='86' cy='17.1' r='3' fill='red' fill-opacity='0.2' transform='scale(0.8)' /><circle cx='94' cy='15.2' r='3' fill='green' fill-opacity='0.2' transform='scale(0.8)' /><circle cx='95' cy='15' r='3' fill='green' fill-opacity='0.2' transform='scale(0.8)' /><circle cx='97' cy='13.5' r='3' fill='green' fill-opacity='0.2' transform='scale(0.8)' /> Sorry, your browser does not support inline SVG.</svg>
